<svg xmlns="http://www.w3.org/2000/svg" viewBox="0 0 512 512"><path fill="#bd3d44" d="M0 0h512v512H0" mask="url(#a)"/><path stroke="#fff" stroke-width="40" d="M0 58h512M0 137h512M0 216h512M0 295h512M0 374h512M0 453h512" mask="url(#a)"/><path fill="#192f5d" d="M0 0h390v275H0z" mask="url(#a)"/><marker id="b" markerHeight="30" markerWidth="30" mask="url(#a)"><path fill="#fff" d="m15 0 9.3 28.6L0 11h30L5.7 28.6"/></marker><path fill="none" marker-mid="url(#b)" d="m0 0 18 11h65 65 65 65 66L51 39h65 65 65 65L18 66h65 65 65 65 66L51 94h65 65 65 65L18 121h65 65 65 65 66L51 149h65 65 65 65L18 177h65 65 65 65 66L51 205h65 65 65 65L18 232h65 65 65 65 66L0 0" mask="url(#a)"/><mask id="a"><circle cx="256" cy="256" r="256" fill="#fff"/></mask></svg>